<?xml version="1.0" encoding="UTF-8"?>
<svg id="Layer_1" data-name="Layer 1" xmlns="http://www.w3.org/2000/svg" xmlns:xlink="http://www.w3.org/1999/xlink" viewBox="0 0 382.56 201.38">
  <defs>
    <style>
      .cls-1 {
        fill: none;
      }

      .cls-2 {
        fill: #231f20;
      }

      .cls-3 {
        fill: url(#linear-gradient);
      }

      .cls-4 {
        fill: #27aae1;
      }

      .cls-5 {
        fill: #39b54a;
      }
    </style>
    <linearGradient id="linear-gradient" x1="90" y1="-126.72" x2="136.88" y2="340.63" gradientUnits="userSpaceOnUse">
      <stop offset="0" stop-color="#29aae1"/>
      <stop offset="1" stop-color="#2a3c90"/>
    </linearGradient>
  </defs>
  <g>
    <path class="cls-2" d="M160.23,52.21h6.02v35.56h-6.02v-35.56Z"/>
    <path class="cls-2" d="M206.6,87.77h-35.55l17.8-35.56,17.75,35.56ZM179.87,82.33h17.95l-8.97-18-8.97,18Z"/>
    <path class="cls-2" d="M211.55,87.77l4.46-35.56,10.72,18,5.73,9.65-3.15,5.24-4.66-7.76-5.19-8.83-2.43,19.26h-5.48ZM230.37,72.83l12.42-20.62,4.37,35.56h-5.48l-2.33-19.31-5.39,8.88-.44.78-3.15-5.29Z"/>
    <path class="cls-2" d="M287.48,70.01c0,9.8-7.95,17.75-17.75,17.75s-17.8-7.95-17.8-17.75,8-17.8,17.8-17.8,17.75,7.95,17.75,17.8ZM269.72,58.32c-6.45,0-11.69,5.24-11.69,11.69s5.24,11.69,11.69,11.69,11.69-5.24,11.69-11.69-5.24-11.69-11.69-11.69Z"/>
    <path class="cls-2" d="M311.74,80.44l-14.02-14.5v21.83h-5.39v-35.56l19.4,20.13v8.1ZM318.82,52.21v35.56l-5.38-5.58v-29.98h5.38Z"/>
    <g>
      <path class="cls-4" d="M143.77,111.69l-2.46-4.14h-7.77l1.36-2.33h5.04l-3.66-6.15-7.46,12.61h-3.28l9.45-15.73c.34-.56.77-.93,1.4-.93s1.04.36,1.38.93l9.47,15.73h-3.46Z"/>
      <path class="cls-4" d="M149.15,111.69v-16.43h2.87v16.43h-2.87Z"/>
      <path class="cls-4" d="M170.28,111.69l-4.16-4.56h-6.15v-2.53h6.85c2.06,0,3.14-1.18,3.14-3.3s-1.18-3.16-3.14-3.16h-8.95v13.56h-2.85v-16.43h11.8c3.75,0,5.97,2.33,5.97,5.99,0,2.71-1.27,4.63-3.39,5.45l4.95,4.99h-4.07Z"/>
      <path class="cls-2" d="M192.96,111.69l-2.46-4.14h-7.77l1.36-2.33h5.04l-3.66-6.15-7.46,12.61h-3.28l9.45-15.73c.34-.56.77-.93,1.4-.93s1.04.36,1.38.93l9.47,15.73h-3.46Z"/>
      <path class="cls-2" d="M200.85,99.67v12.02h-2.73v-14.92c0-1.06.56-1.72,1.47-1.72.43,0,.79.16,1.22.59l11.59,11.5v-12.02h2.73v15.05c0,1.08-.59,1.72-1.42,1.72-.47,0-.9-.2-1.31-.61l-11.55-11.62Z"/>
      <path class="cls-2" d="M217.91,111.69v-16.43h9.51c4.63,0,8,3.28,8,8.04s-3.37,8.38-8,8.38h-9.51ZM227.43,108.82c2.96,0,5.13-2.28,5.13-5.38s-2.17-5.31-5.13-5.31h-6.67v10.69h6.67Z"/>
      <path class="cls-5" d="M237.78,111.69v-16.43h14.67v2.87h-11.82v10.69h11.84v2.87h-14.69ZM242.73,104.55v-2.42h9.11v2.42h-9.11Z"/>
      <path class="cls-5" d="M257.6,99.67v12.02h-2.73v-14.92c0-1.06.56-1.72,1.47-1.72.43,0,.79.16,1.22.59l11.59,11.5v-12.02h2.73v15.05c0,1.08-.59,1.72-1.42,1.72-.47,0-.9-.2-1.31-.61l-11.55-11.62Z"/>
      <path class="cls-5" d="M274.66,111.69v-16.43h14.67v2.87h-11.82v10.69h11.84v2.87h-14.69ZM279.61,104.55v-2.42h9.11v2.42h-9.11Z"/>
      <path class="cls-5" d="M307.06,111.69l-4.16-4.56h-6.15v-2.53h6.85c2.06,0,3.14-1.18,3.14-3.3s-1.18-3.16-3.14-3.16h-8.95v13.56h-2.85v-16.43h11.8c3.75,0,5.97,2.33,5.97,5.99,0,2.71-1.27,4.63-3.39,5.45l4.95,4.99h-4.07Z"/>
      <path class="cls-5" d="M319.74,111.69c-4.59,0-7.98-3.62-7.98-8.38s3.39-8.04,7.98-8.04h8.9v2.87h-8.9c-2.94,0-5.11,2.19-5.11,5.31s2.15,5.38,5.11,5.38h7.03v-4.27h-7.41v-2.42h10.31v9.56h-9.92Z"/>
      <path class="cls-5" d="M339.9,111.69v-6.24l-8.72-10.19h3.86l6.4,7.57,6.42-7.57h3.66l-8.75,10.19v6.24h-2.87Z"/>
    </g>
    <polygon class="cls-3" points="186.01 38.39 75.96 38.39 30.75 74.72 130.91 162.98 186.01 114.55 130.91 146.57 55.5 70.15 81.88 49.16 186.01 38.39"/>
    <path class="cls-2" d="M141.25,52.21h-14.02v35.56h5.83v-6.02h-.01v-23.53h8.2c2.04,0,3.83.92,5.24,2.67,1.41,1.75,3.06,5,3.06,10.96,0,2.91-.44,6.69-2.42,8.39-1.17,1.02-3.1,1.5-5.87,1.5h-6.28v6.02h6.28c6.94,0,14.11-2.33,14.11-15.81s-6.98-19.74-14.11-19.74Z"/>
    <path class="cls-2" d="M337.69,52.21h-14.02v35.56h5.82v-6.02h0v-23.53h8.2c2.04,0,3.83.92,5.24,2.67,1.4,1.75,3.05,5,3.05,10.96,0,2.91-.44,6.69-2.42,8.39-1.16,1.02-3.1,1.5-5.87,1.5h-6.29v6.02h6.29c6.94,0,14.11-2.33,14.11-15.81s-6.98-19.74-14.11-19.74Z"/>
  </g>
  <rect class="cls-1" width="382.56" height="201.38"/>
</svg>