<svg width="133" height="59" viewBox="0 0 133 59" fill="none" xmlns="http://www.w3.org/2000/svg">
<mask id="path-1-outside-1_818_510" maskUnits="userSpaceOnUse" x="72.4217" y="4.88152" width="14.5435" height="17.8059" fill="black">
<rect fill="white" x="72.4217" y="4.88152" width="14.5435" height="17.8059"/>
<path d="M77.3676 20.9031L77.3123 20.9127L77.0742 20.7446L76.9016 20.7363L76.724 20.3677L76.8125 20.2193L76.7164 20.1028L76.7731 19.7699L76.7387 19.6808L76.8578 19.4891L76.8565 19.2612L76.9144 19.1562L77.0163 19.1957L77.0526 19.0753L77.0239 18.9092L77.1678 18.7513L77.2742 18.4858L77.3875 18.3712L77.4511 18.1892L77.4251 17.9275L77.6097 17.8957L77.5199 17.8161L77.7428 17.4545L77.8211 17.1368L77.7434 17.0171L77.8975 17.0286L77.9121 16.893L77.8561 16.7886L77.83 16.5269L77.9281 16.434L77.8529 16.2188L77.9943 16.1564L77.8981 16.0399L77.8472 15.7445L77.8039 15.7139L77.8122 15.5414L77.6461 15.5701L77.5595 15.5089L77.6747 15.1849L77.5888 15.2377L77.5047 15.0811L77.55 14.9022L77.3711 14.857L77.3329 14.6355L77.2527 14.6113L77.2208 14.4267L77.0413 14.2675L77.084 14.1841L76.9509 14.074L77.0114 13.8734L76.9191 13.8893L76.9 13.7786L76.8102 13.699L76.6192 13.6939L76.6065 13.62L76.7784 13.5144L76.2933 13.2368L76.2615 13.0521L76.0699 12.9331L76.0444 12.7854L75.8617 12.6078L75.9356 12.595L75.9629 12.5333L75.8394 12.4785L75.7414 12.5715L75.3849 12.1576L75.3658 12.0469L75.2047 11.8845L75.0386 11.9132L75.0067 11.7285L75.0679 11.642L74.6751 11.3485L74.7547 11.2587L74.6031 11.1517L74.565 10.9302L74.2721 10.8856L74.2403 10.701L74.3574 10.7188L74.1957 10.4425L74.2263 10.3992L74.1913 10.1961L74.0767 10.0828L74.0099 9.6951L73.8762 9.471L73.803 9.04637L73.8221 8.60582L74.0991 8.00676L74.4148 7.74321L74.4613 7.79223L74.553 7.66236L74.8853 7.60508L74.9617 7.49685L75.0699 7.57325L75.1648 7.46185L75.5315 7.49369L75.9663 7.58984L76.3158 7.85278L76.3534 7.96037L76.5011 7.93491L76.6558 8.06034L76.6252 8.10363L76.8391 8.35192L76.9314 8.33601L77.1128 8.83704L77.4018 9.30052L77.5126 9.28143L77.5317 9.3922L77.6794 9.36674L77.7876 9.44314L77.6463 9.50553L77.722 9.83467L77.9041 9.89834L77.9328 10.0645L78.0002 10.0148L78.1486 10.1033L78.2963 10.0779L78.3803 10.2345L78.3408 10.3364L78.0849 10.2854L78.0543 10.3287L78.2708 10.4815L78.3631 10.4656L78.4026 10.3637L78.6158 10.4981L78.4312 10.5299L78.4841 10.6158L78.4662 10.733L78.5649 10.754L78.6922 10.9412L78.824 10.8234L78.8463 10.9526L79.0958 10.9666L79.164 11.031L79.2435 10.9412L79.2391 11.2461L79.4995 10.9921L79.6841 10.9603L79.6281 10.8559L79.7586 10.5102L79.8808 10.3371L79.8649 10.2447L80.0196 9.81884L79.942 9.69915L80.0973 9.38721L80.0992 9.17776L80.1572 9.07272L80.1285 8.90655L80.2571 8.77032L80.2094 8.49339L80.3552 8.12605L80.4622 7.97454L80.4367 7.82684L80.5437 7.67533L80.5609 7.44423L80.9868 7.04763L81.2083 7.00944L81.2516 7.04L81.4916 6.99863L81.5528 6.91205L81.7603 7.12342L81.9386 7.05467L82.0009 7.196L82.1645 7.26286L82.0882 7.37108L82.1747 7.4322L82.2658 7.7397L82.2295 7.86002L82.2848 7.85047L82.3262 8.09048L82.2142 8.43298L82.2759 8.46036L82.2498 8.75003L82.188 8.72265L82.181 9.12309L82.0703 9.14218L82.0995 9.4223L81.9429 10.0577L81.7812 10.3327L81.7614 10.6593L81.6666 10.7707L81.7079 11.0107L81.6067 11.0852L81.6481 11.3252L81.4883 11.3907L81.5812 11.4888L81.5615 11.8154L81.424 12.0102L81.2966 12.3743L81.4761 12.5335L81.3011 12.6207L81.3074 12.6576L81.3997 12.6417L81.4252 12.7894L81.3456 12.8792L81.4507 12.9371L81.5366 12.8843L81.5621 13.032L81.6327 13.0008L81.4952 13.1956L81.6257 13.4012L81.6244 13.7246L81.7664 13.7762L81.8504 13.9328L81.774 14.041L81.8975 14.0958L81.9421 14.3543L82.1082 14.3256L82.1191 14.6089L82.2553 14.7375L82.2476 15.024L82.5379 15.1641L82.6653 15.3513L82.6162 15.3977L82.6385 15.527L82.7862 15.5015L82.8944 15.5779L82.8486 15.6428L83.065 15.7956L83.0905 15.9433L83.2446 15.9548L83.2796 16.1579L83.4305 16.1509L83.5699 16.298L83.7118 16.3495L83.7341 16.4788L83.9811 16.5883L84.013 16.7729L84.2103 16.8149L84.3255 17.0422L84.3682 16.9588L84.6502 17.2714L84.7005 17.4529L84.9106 17.5687L84.9456 17.7718L85.0353 17.8514L85.064 18.0176L85.3059 18.3181L85.2696 18.4384L85.2206 18.4849L85.2772 18.7032L85.0824 19.117L85.027 19.1266L84.9029 19.5092L84.8341 19.3309L84.6164 19.5015L84.3853 19.4843L84.4839 19.5053L84.4196 19.5735L84.1204 19.492L83.9689 19.385L83.6793 19.3589L83.4011 19.1787L83.2222 19.1335L83.1999 19.0043L83.126 19.017L82.9682 18.8731L82.9039 18.9412L82.851 18.8553L82.7154 18.8406L82.6931 18.7114L82.5728 18.6751L82.5442 18.5089L82.4455 18.4879L82.3596 18.5408L82.2972 18.3994L82.1119 18.3173L82.1457 18.2925L81.982 18.2256L81.9629 18.1148L81.8706 18.1308L81.8484 18.0015L81.7503 18.0945L81.6752 17.8793L81.5581 17.8615L81.4906 17.9111L81.2557 17.7615L81.136 17.8392L80.9106 17.7449L80.8915 17.6341L80.7375 17.6227L80.6292 17.5463L80.3275 17.5603L80.1772 17.6812L80.0111 17.7099L79.6405 18.0969L79.5081 18.1007L79.4419 18.3783L79.2452 18.4502L79.2611 18.5426L79.4425 18.4923L79.2101 18.7985L79.2356 18.9462L79.0892 19.1996L78.9415 19.225L78.8625 19.4287L78.888 19.5764L78.7683 19.6541L78.858 19.7337L78.6492 19.8457L78.5403 20.2067L78.2679 20.5008L78.0648 20.5358L78.0839 20.6466L77.6478 20.8738L77.5179 20.7822L77.5465 20.9483L77.3676 20.9031ZM80.959 17.5845L81.0182 17.7074L81.1105 17.6915L81.0882 17.5622L80.959 17.5845ZM78.0104 10.1842L78.069 10.1931L78.0563 10.1193L78.0009 10.1288L78.0104 10.1842ZM81.0333 7.09665L81.0797 7.14567L81.1536 7.13294L81.1409 7.05909L81.0333 7.09665ZM80.761 17.4285L80.8075 17.4775L80.8629 17.468L80.761 17.4285ZM80.6716 7.42514L80.6812 7.48052L80.727 7.41559L80.6716 7.42514Z"/>
</mask>
<path d="M77.3676 20.9031L77.3123 20.9127L77.0742 20.7446L76.9016 20.7363L76.724 20.3677L76.8125 20.2193L76.7164 20.1028L76.7731 19.7699L76.7387 19.6808L76.8578 19.4891L76.8565 19.2612L76.9144 19.1562L77.0163 19.1957L77.0526 19.0753L77.0239 18.9092L77.1678 18.7513L77.2742 18.4858L77.3875 18.3712L77.4511 18.1892L77.4251 17.9275L77.6097 17.8957L77.5199 17.8161L77.7428 17.4545L77.8211 17.1368L77.7434 17.0171L77.8975 17.0286L77.9121 16.893L77.8561 16.7886L77.83 16.5269L77.9281 16.434L77.8529 16.2188L77.9943 16.1564L77.8981 16.0399L77.8472 15.7445L77.8039 15.7139L77.8122 15.5414L77.6461 15.5701L77.5595 15.5089L77.6747 15.1849L77.5888 15.2377L77.5047 15.0811L77.55 14.9022L77.3711 14.857L77.3329 14.6355L77.2527 14.6113L77.2208 14.4267L77.0413 14.2675L77.084 14.1841L76.9509 14.074L77.0114 13.8734L76.9191 13.8893L76.9 13.7786L76.8102 13.699L76.6192 13.6939L76.6065 13.62L76.7784 13.5144L76.2933 13.2368L76.2615 13.0521L76.0699 12.9331L76.0444 12.7854L75.8617 12.6078L75.9356 12.595L75.9629 12.5333L75.8394 12.4785L75.7414 12.5715L75.3849 12.1576L75.3658 12.0469L75.2047 11.8845L75.0386 11.9132L75.0067 11.7285L75.0679 11.642L74.6751 11.3485L74.7547 11.2587L74.6031 11.1517L74.565 10.9302L74.2721 10.8856L74.2403 10.701L74.3574 10.7188L74.1957 10.4425L74.2263 10.3992L74.1913 10.1961L74.0767 10.0828L74.0099 9.6951L73.8762 9.471L73.803 9.04637L73.8221 8.60582L74.0991 8.00676L74.4148 7.74321L74.4613 7.79223L74.553 7.66236L74.8853 7.60508L74.9617 7.49685L75.0699 7.57325L75.1648 7.46185L75.5315 7.49369L75.9663 7.58984L76.3158 7.85278L76.3534 7.96037L76.5011 7.93491L76.6558 8.06034L76.6252 8.10363L76.8391 8.35192L76.9314 8.33601L77.1128 8.83704L77.4018 9.30052L77.5126 9.28143L77.5317 9.3922L77.6794 9.36674L77.7876 9.44314L77.6463 9.50553L77.722 9.83467L77.9041 9.89834L77.9328 10.0645L78.0002 10.0148L78.1486 10.1033L78.2963 10.0779L78.3803 10.2345L78.3408 10.3364L78.0849 10.2854L78.0543 10.3287L78.2708 10.4815L78.3631 10.4656L78.4026 10.3637L78.6158 10.4981L78.4312 10.5299L78.4841 10.6158L78.4662 10.733L78.5649 10.754L78.6922 10.9412L78.824 10.8234L78.8463 10.9526L79.0958 10.9666L79.164 11.031L79.2435 10.9412L79.2391 11.2461L79.4995 10.9921L79.6841 10.9603L79.6281 10.8559L79.7586 10.5102L79.8808 10.3371L79.8649 10.2447L80.0196 9.81884L79.942 9.69915L80.0973 9.38721L80.0992 9.17776L80.1572 9.07272L80.1285 8.90655L80.2571 8.77032L80.2094 8.49339L80.3552 8.12605L80.4622 7.97454L80.4367 7.82684L80.5437 7.67533L80.5609 7.44423L80.9868 7.04763L81.2083 7.00944L81.2516 7.04L81.4916 6.99863L81.5528 6.91205L81.7603 7.12342L81.9386 7.05467L82.0009 7.196L82.1645 7.26286L82.0882 7.37108L82.1747 7.4322L82.2658 7.7397L82.2295 7.86002L82.2848 7.85047L82.3262 8.09048L82.2142 8.43298L82.2759 8.46036L82.2498 8.75003L82.188 8.72265L82.181 9.12309L82.0703 9.14218L82.0995 9.4223L81.9429 10.0577L81.7812 10.3327L81.7614 10.6593L81.6666 10.7707L81.7079 11.0107L81.6067 11.0852L81.6481 11.3252L81.4883 11.3907L81.5812 11.4888L81.5615 11.8154L81.424 12.0102L81.2966 12.3743L81.4761 12.5335L81.3011 12.6207L81.3074 12.6576L81.3997 12.6417L81.4252 12.7894L81.3456 12.8792L81.4507 12.9371L81.5366 12.8843L81.5621 13.032L81.6327 13.0008L81.4952 13.1956L81.6257 13.4012L81.6244 13.7246L81.7664 13.7762L81.8504 13.9328L81.774 14.041L81.8975 14.0958L81.9421 14.3543L82.1082 14.3256L82.1191 14.6089L82.2553 14.7375L82.2476 15.024L82.5379 15.1641L82.6653 15.3513L82.6162 15.3977L82.6385 15.527L82.7862 15.5015L82.8944 15.5779L82.8486 15.6428L83.065 15.7956L83.0905 15.9433L83.2446 15.9548L83.2796 16.1579L83.4305 16.1509L83.5699 16.298L83.7118 16.3495L83.7341 16.4788L83.9811 16.5883L84.013 16.7729L84.2103 16.8149L84.3255 17.0422L84.3682 16.9588L84.6502 17.2714L84.7005 17.4529L84.9106 17.5687L84.9456 17.7718L85.0353 17.8514L85.064 18.0176L85.3059 18.3181L85.2696 18.4384L85.2206 18.4849L85.2772 18.7032L85.0824 19.117L85.027 19.1266L84.9029 19.5092L84.8341 19.3309L84.6164 19.5015L84.3853 19.4843L84.4839 19.5053L84.4196 19.5735L84.1204 19.492L83.9689 19.385L83.6793 19.3589L83.4011 19.1787L83.2222 19.1335L83.1999 19.0043L83.126 19.017L82.9682 18.8731L82.9039 18.9412L82.851 18.8553L82.7154 18.8406L82.6931 18.7114L82.5728 18.6751L82.5442 18.5089L82.4455 18.4879L82.3596 18.5408L82.2972 18.3994L82.1119 18.3173L82.1457 18.2925L81.982 18.2256L81.9629 18.1148L81.8706 18.1308L81.8484 18.0015L81.7503 18.0945L81.6752 17.8793L81.5581 17.8615L81.4906 17.9111L81.2557 17.7615L81.136 17.8392L80.9106 17.7449L80.8915 17.6341L80.7375 17.6227L80.6292 17.5463L80.3275 17.5603L80.1772 17.6812L80.0111 17.7099L79.6405 18.0969L79.5081 18.1007L79.4419 18.3783L79.2452 18.4502L79.2611 18.5426L79.4425 18.4923L79.2101 18.7985L79.2356 18.9462L79.0892 19.1996L78.9415 19.225L78.8625 19.4287L78.888 19.5764L78.7683 19.6541L78.858 19.7337L78.6492 19.8457L78.5403 20.2067L78.2679 20.5008L78.0648 20.5358L78.0839 20.6466L77.6478 20.8738L77.5179 20.7822L77.5465 20.9483L77.3676 20.9031ZM80.959 17.5845L81.0182 17.7074L81.1105 17.6915L81.0882 17.5622L80.959 17.5845ZM78.0104 10.1842L78.069 10.1931L78.0563 10.1193L78.0009 10.1288L78.0104 10.1842ZM81.0333 7.09665L81.0797 7.14567L81.1536 7.13294L81.1409 7.05909L81.0333 7.09665ZM80.761 17.4285L80.8075 17.4775L80.8629 17.468L80.761 17.4285ZM80.6716 7.42514L80.6812 7.48052L80.727 7.41559L80.6716 7.42514Z" fill="white"/>
<path d="M77.3676 20.9031L77.3123 20.9127L77.0742 20.7446L76.9016 20.7363L76.724 20.3677L76.8125 20.2193L76.7164 20.1028L76.7731 19.7699L76.7387 19.6808L76.8578 19.4891L76.8565 19.2612L76.9144 19.1562L77.0163 19.1957L77.0526 19.0753L77.0239 18.9092L77.1678 18.7513L77.2742 18.4858L77.3875 18.3712L77.4511 18.1892L77.4251 17.9275L77.6097 17.8957L77.5199 17.8161L77.7428 17.4545L77.8211 17.1368L77.7434 17.0171L77.8975 17.0286L77.9121 16.893L77.8561 16.7886L77.83 16.5269L77.9281 16.434L77.8529 16.2188L77.9943 16.1564L77.8981 16.0399L77.8472 15.7445L77.8039 15.7139L77.8122 15.5414L77.6461 15.5701L77.5595 15.5089L77.6747 15.1849L77.5888 15.2377L77.5047 15.0811L77.55 14.9022L77.3711 14.857L77.3329 14.6355L77.2527 14.6113L77.2208 14.4267L77.0413 14.2675L77.084 14.1841L76.9509 14.074L77.0114 13.8734L76.9191 13.8893L76.9 13.7786L76.8102 13.699L76.6192 13.6939L76.6065 13.62L76.7784 13.5144L76.2933 13.2368L76.2615 13.0521L76.0699 12.9331L76.0444 12.7854L75.8617 12.6078L75.9356 12.595L75.9629 12.5333L75.8394 12.4785L75.7414 12.5715L75.3849 12.1576L75.3658 12.0469L75.2047 11.8845L75.0386 11.9132L75.0067 11.7285L75.0679 11.642L74.6751 11.3485L74.7547 11.2587L74.6031 11.1517L74.565 10.9302L74.2721 10.8856L74.2403 10.701L74.3574 10.7188L74.1957 10.4425L74.2263 10.3992L74.1913 10.1961L74.0767 10.0828L74.0099 9.6951L73.8762 9.471L73.803 9.04637L73.8221 8.60582L74.0991 8.00676L74.4148 7.74321L74.4613 7.79223L74.553 7.66236L74.8853 7.60508L74.9617 7.49685L75.0699 7.57325L75.1648 7.46185L75.5315 7.49369L75.9663 7.58984L76.3158 7.85278L76.3534 7.96037L76.5011 7.93491L76.6558 8.06034L76.6252 8.10363L76.8391 8.35192L76.9314 8.33601L77.1128 8.83704L77.4018 9.30052L77.5126 9.28143L77.5317 9.3922L77.6794 9.36674L77.7876 9.44314L77.6463 9.50553L77.722 9.83467L77.9041 9.89834L77.9328 10.0645L78.0002 10.0148L78.1486 10.1033L78.2963 10.0779L78.3803 10.2345L78.3408 10.3364L78.0849 10.2854L78.0543 10.3287L78.2708 10.4815L78.3631 10.4656L78.4026 10.3637L78.6158 10.4981L78.4312 10.5299L78.4841 10.6158L78.4662 10.733L78.5649 10.754L78.6922 10.9412L78.824 10.8234L78.8463 10.9526L79.0958 10.9666L79.164 11.031L79.2435 10.9412L79.2391 11.2461L79.4995 10.9921L79.6841 10.9603L79.6281 10.8559L79.7586 10.5102L79.8808 10.3371L79.8649 10.2447L80.0196 9.81884L79.942 9.69915L80.0973 9.38721L80.0992 9.17776L80.1572 9.07272L80.1285 8.90655L80.2571 8.77032L80.2094 8.49339L80.3552 8.12605L80.4622 7.97454L80.4367 7.82684L80.5437 7.67533L80.5609 7.44423L80.9868 7.04763L81.2083 7.00944L81.2516 7.04L81.4916 6.99863L81.5528 6.91205L81.7603 7.12342L81.9386 7.05467L82.0009 7.196L82.1645 7.26286L82.0882 7.37108L82.1747 7.4322L82.2658 7.7397L82.2295 7.86002L82.2848 7.85047L82.3262 8.09048L82.2142 8.43298L82.2759 8.46036L82.2498 8.75003L82.188 8.72265L82.181 9.12309L82.0703 9.14218L82.0995 9.4223L81.9429 10.0577L81.7812 10.3327L81.7614 10.6593L81.6666 10.7707L81.7079 11.0107L81.6067 11.0852L81.6481 11.3252L81.4883 11.3907L81.5812 11.4888L81.5615 11.8154L81.424 12.0102L81.2966 12.3743L81.4761 12.5335L81.3011 12.6207L81.3074 12.6576L81.3997 12.6417L81.4252 12.7894L81.3456 12.8792L81.4507 12.9371L81.5366 12.8843L81.5621 13.032L81.6327 13.0008L81.4952 13.1956L81.6257 13.4012L81.6244 13.7246L81.7664 13.7762L81.8504 13.9328L81.774 14.041L81.8975 14.0958L81.9421 14.3543L82.1082 14.3256L82.1191 14.6089L82.2553 14.7375L82.2476 15.024L82.5379 15.1641L82.6653 15.3513L82.6162 15.3977L82.6385 15.527L82.7862 15.5015L82.8944 15.5779L82.8486 15.6428L83.065 15.7956L83.0905 15.9433L83.2446 15.9548L83.2796 16.1579L83.4305 16.1509L83.5699 16.298L83.7118 16.3495L83.7341 16.4788L83.9811 16.5883L84.013 16.7729L84.2103 16.8149L84.3255 17.0422L84.3682 16.9588L84.6502 17.2714L84.7005 17.4529L84.9106 17.5687L84.9456 17.7718L85.0353 17.8514L85.064 18.0176L85.3059 18.3181L85.2696 18.4384L85.2206 18.4849L85.2772 18.7032L85.0824 19.117L85.027 19.1266L84.9029 19.5092L84.8341 19.3309L84.6164 19.5015L84.3853 19.4843L84.4839 19.5053L84.4196 19.5735L84.1204 19.492L83.9689 19.385L83.6793 19.3589L83.4011 19.1787L83.2222 19.1335L83.1999 19.0043L83.126 19.017L82.9682 18.8731L82.9039 18.9412L82.851 18.8553L82.7154 18.8406L82.6931 18.7114L82.5728 18.6751L82.5442 18.5089L82.4455 18.4879L82.3596 18.5408L82.2972 18.3994L82.1119 18.3173L82.1457 18.2925L81.982 18.2256L81.9629 18.1148L81.8706 18.1308L81.8484 18.0015L81.7503 18.0945L81.6752 17.8793L81.5581 17.8615L81.4906 17.9111L81.2557 17.7615L81.136 17.8392L80.9106 17.7449L80.8915 17.6341L80.7375 17.6227L80.6292 17.5463L80.3275 17.5603L80.1772 17.6812L80.0111 17.7099L79.6405 18.0969L79.5081 18.1007L79.4419 18.3783L79.2452 18.4502L79.2611 18.5426L79.4425 18.4923L79.2101 18.7985L79.2356 18.9462L79.0892 19.1996L78.9415 19.225L78.8625 19.4287L78.888 19.5764L78.7683 19.6541L78.858 19.7337L78.6492 19.8457L78.5403 20.2067L78.2679 20.5008L78.0648 20.5358L78.0839 20.6466L77.6478 20.8738L77.5179 20.7822L77.5465 20.9483L77.3676 20.9031ZM80.959 17.5845L81.0182 17.7074L81.1105 17.6915L81.0882 17.5622L80.959 17.5845ZM78.0104 10.1842L78.069 10.1931L78.0563 10.1193L78.0009 10.1288L78.0104 10.1842ZM81.0333 7.09665L81.0797 7.14567L81.1536 7.13294L81.1409 7.05909L81.0333 7.09665ZM80.761 17.4285L80.8075 17.4775L80.8629 17.468L80.761 17.4285ZM80.6716 7.42514L80.6812 7.48052L80.727 7.41559L80.6716 7.42514Z" stroke="white" stroke-width="0.437203" mask="url(#path-1-outside-1_818_510)"/>
<mask id="path-2-outside-2_818_510" maskUnits="userSpaceOnUse" x="84.2657" y="4.99958" width="11.0775" height="14.3399" fill="black">
<rect fill="white" x="84.2657" y="4.99958" width="11.0775" height="14.3399"/>
<path d="M88.4395 17.8292L88.3954 17.8368L88.2058 17.7029L88.0684 17.6963L87.927 17.4028L87.9975 17.2847L87.9209 17.1919L87.9661 16.9268L87.9387 16.8558L88.0335 16.7032L88.0325 16.5217L88.0786 16.4381L88.1597 16.4695L88.1886 16.3737L88.1658 16.2414L88.2804 16.1157L88.3651 15.9043L88.4553 15.8131L88.506 15.6681L88.4852 15.4597L88.6322 15.4344L88.5608 15.371L88.7382 15.0831L88.8006 14.8301L88.7387 14.7348L88.8614 14.7439L88.8731 14.636L88.8285 14.5528L88.8077 14.3445L88.8857 14.2705L88.8259 14.0991L88.9385 14.0494L88.8619 13.9567L88.8214 13.7214L88.7869 13.6971L88.7935 13.5597L88.6612 13.5825L88.5923 13.5339L88.684 13.2758L88.6156 13.3179L88.5487 13.1932L88.5847 13.0507L88.4422 13.0147L88.4118 12.8383L88.3479 12.8191L88.3226 12.6721L88.1796 12.5453L88.2136 12.4789L88.1077 12.3912L88.1558 12.2315L88.0823 12.2442L88.0671 12.156L87.9956 12.0926L87.8436 12.0885L87.8334 12.0297L87.9703 11.9456L87.584 11.7246L87.5587 11.5775L87.4061 11.4827L87.3858 11.3651L87.2403 11.2237L87.2991 11.2135L87.3209 11.1644L87.2226 11.1208L87.1445 11.1948L86.8607 10.8653L86.8454 10.7771L86.7172 10.6478L86.5849 10.6706L86.5595 10.5236L86.6082 10.4546L86.2954 10.2209L86.3588 10.1494L86.2382 10.0643L86.2078 9.88785L85.9746 9.85236L85.9492 9.70534L86.0425 9.71954L85.9137 9.49952L85.9381 9.46505L85.9102 9.30334L85.819 9.2131L85.7657 8.90437L85.6593 8.72592L85.601 8.38779L85.6162 8.03699L85.8368 7.55997L86.0882 7.3501L86.1252 7.38914L86.1982 7.28573L86.4628 7.24011L86.5237 7.15393L86.6099 7.21477L86.6854 7.12606L86.9774 7.15142L87.3236 7.22798L87.6019 7.43736L87.6318 7.52303L87.7495 7.50276L87.8726 7.60263L87.8483 7.6371L88.0186 7.83481L88.0921 7.82214L88.2366 8.22111L88.4667 8.59017L88.5549 8.57497L88.5701 8.66318L88.6878 8.6429L88.7739 8.70374L88.6614 8.75342L88.7217 9.01551L88.8667 9.06621L88.8895 9.19852L88.9432 9.15898L89.0613 9.22945L89.179 9.20918L89.2459 9.33388L89.2144 9.41499L89.0106 9.37443L88.9863 9.4089L89.1587 9.53057L89.2322 9.5179L89.2636 9.4368L89.4334 9.54377L89.2864 9.56911L89.3285 9.63755L89.3143 9.73082L89.3929 9.74755L89.4942 9.8966L89.5992 9.80282L89.6169 9.90573L89.8156 9.91689L89.8699 9.96809L89.9333 9.89662L89.9297 10.1394L90.137 9.93718L90.2841 9.91184L90.2395 9.8287L90.3434 9.55343L90.4407 9.41555L90.4281 9.34204L90.5513 9.0029L90.4894 8.9076L90.6131 8.6592L90.6146 8.49242L90.6608 8.40877L90.638 8.27646L90.7404 8.16798L90.7024 7.94746L90.8185 7.65496L90.9036 7.53431L90.8834 7.4167L90.9685 7.29605L90.9822 7.11203L91.3214 6.79622L91.4978 6.76581L91.5323 6.79015L91.7234 6.7572L91.7721 6.68826L91.9373 6.85657L92.0793 6.80183L92.1289 6.91437L92.2592 6.96761L92.1984 7.05378L92.2673 7.10245L92.3398 7.34731L92.3109 7.44312L92.355 7.43552L92.388 7.62663L92.2987 7.89936L92.3479 7.92116L92.3271 8.15182L92.2779 8.13002L92.2723 8.44889L92.1841 8.46409L92.2074 8.68715L92.0827 9.19307L91.9539 9.41206L91.9382 9.67212L91.8627 9.76083L91.8956 9.95195L91.815 10.0113L91.848 10.2024L91.7207 10.2546L91.7947 10.3327L91.779 10.5927L91.6695 10.7478L91.5681 11.0378L91.711 11.1645L91.5716 11.234L91.5767 11.2634L91.6502 11.2507L91.6705 11.3683L91.6071 11.4398L91.6908 11.4859L91.7592 11.4439L91.7795 11.5615L91.8357 11.5366L91.7262 11.6918L91.8302 11.8555L91.8291 12.113L91.9422 12.1541L92.0091 12.2788L91.9482 12.365L92.0466 12.4086L92.0821 12.6144L92.2144 12.5916L92.223 12.8172L92.3315 12.9196L92.3254 13.1477L92.5565 13.2593L92.6579 13.4083L92.6189 13.4453L92.6366 13.5482L92.7542 13.5279L92.8404 13.5888L92.8039 13.6405L92.9763 13.7622L92.9965 13.8798L93.1192 13.8889L93.1471 14.0506L93.2672 14.045L93.3783 14.1621L93.4913 14.2032L93.509 14.3061L93.7057 14.3933L93.7311 14.5403L93.8882 14.5738L93.98 14.7548L94.0139 14.6884L94.2385 14.9373L94.2785 15.0818L94.4458 15.174L94.4737 15.3358L94.5452 15.3991L94.568 15.5314L94.7606 15.7707L94.7317 15.8665L94.6927 15.9035L94.7378 16.0774L94.5827 16.4069L94.5386 16.4145L94.4397 16.7192L94.3849 16.5773L94.2116 16.7131L94.0275 16.6994L94.1061 16.7161L94.0549 16.7704L93.8167 16.7055L93.696 16.6203L93.4654 16.5995L93.2438 16.456L93.1014 16.42L93.0836 16.3171L93.0248 16.3273L92.8991 16.2127L92.8479 16.2669L92.8058 16.1985L92.6979 16.1868L92.6801 16.0839L92.5843 16.055L92.5615 15.9227L92.4829 15.906L92.4145 15.9481L92.3648 15.8355L92.2173 15.7701L92.2442 15.7503L92.1139 15.6971L92.0987 15.6089L92.0252 15.6216L92.0074 15.5187L91.9294 15.5927L91.8696 15.4213L91.7763 15.4071L91.7225 15.4467L91.5355 15.3275L91.4402 15.3894L91.2607 15.3143L91.2455 15.2261L91.1228 15.217L91.0367 15.1562L90.7964 15.1673L90.6767 15.2636L90.5444 15.2864L90.2494 15.5946L90.1439 15.5977L90.0912 15.8187L89.9345 15.876L89.9472 15.9495L90.0917 15.9094L89.9067 16.1533L89.9269 16.2709L89.8103 16.4726L89.6927 16.4929L89.6298 16.6551L89.6501 16.7727L89.5548 16.8346L89.6263 16.898L89.46 16.9872L89.3733 17.2746L89.1563 17.5088L88.9946 17.5367L89.0098 17.6249L88.6626 17.8058L88.5591 17.7328L88.5819 17.8652L88.4395 17.8292ZM91.2993 15.1866L91.3464 15.2844L91.4199 15.2718L91.4022 15.1689L91.2993 15.1866ZM88.9513 9.29383L88.998 9.30092L88.9878 9.24212L88.9437 9.24972L88.9513 9.29383ZM91.3584 6.83526L91.3954 6.87429L91.4542 6.86416L91.4441 6.80535L91.3584 6.83526ZM91.1416 15.0624L91.1786 15.1014L91.2227 15.0938L91.1416 15.0624ZM91.0704 7.09683L91.078 7.14093L91.1145 7.08923L91.0704 7.09683Z"/>
</mask>
<path d="M88.4395 17.8292L88.3954 17.8368L88.2058 17.7029L88.0684 17.6963L87.927 17.4028L87.9975 17.2847L87.9209 17.1919L87.9661 16.9268L87.9387 16.8558L88.0335 16.7032L88.0325 16.5217L88.0786 16.4381L88.1597 16.4695L88.1886 16.3737L88.1658 16.2414L88.2804 16.1157L88.3651 15.9043L88.4553 15.8131L88.506 15.6681L88.4852 15.4597L88.6322 15.4344L88.5608 15.371L88.7382 15.0831L88.8006 14.8301L88.7387 14.7348L88.8614 14.7439L88.8731 14.636L88.8285 14.5528L88.8077 14.3445L88.8857 14.2705L88.8259 14.0991L88.9385 14.0494L88.8619 13.9567L88.8214 13.7214L88.7869 13.6971L88.7935 13.5597L88.6612 13.5825L88.5923 13.5339L88.684 13.2758L88.6156 13.3179L88.5487 13.1932L88.5847 13.0507L88.4422 13.0147L88.4118 12.8383L88.3479 12.8191L88.3226 12.6721L88.1796 12.5453L88.2136 12.4789L88.1077 12.3912L88.1558 12.2315L88.0823 12.2442L88.0671 12.156L87.9956 12.0926L87.8436 12.0885L87.8334 12.0297L87.9703 11.9456L87.584 11.7246L87.5587 11.5775L87.4061 11.4827L87.3858 11.3651L87.2403 11.2237L87.2991 11.2135L87.3209 11.1644L87.2226 11.1208L87.1445 11.1948L86.8607 10.8653L86.8454 10.7771L86.7172 10.6478L86.5849 10.6706L86.5595 10.5236L86.6082 10.4546L86.2954 10.2209L86.3588 10.1494L86.2382 10.0643L86.2078 9.88785L85.9746 9.85236L85.9492 9.70534L86.0425 9.71954L85.9137 9.49952L85.9381 9.46505L85.9102 9.30334L85.819 9.2131L85.7657 8.90437L85.6593 8.72592L85.601 8.38779L85.6162 8.03699L85.8368 7.55997L86.0882 7.3501L86.1252 7.38914L86.1982 7.28573L86.4628 7.24011L86.5237 7.15393L86.6099 7.21477L86.6854 7.12606L86.9774 7.15142L87.3236 7.22798L87.6019 7.43736L87.6318 7.52303L87.7495 7.50276L87.8726 7.60263L87.8483 7.6371L88.0186 7.83481L88.0921 7.82214L88.2366 8.22111L88.4667 8.59017L88.5549 8.57497L88.5701 8.66318L88.6878 8.6429L88.7739 8.70374L88.6614 8.75342L88.7217 9.01551L88.8667 9.06621L88.8895 9.19852L88.9432 9.15898L89.0613 9.22945L89.179 9.20918L89.2459 9.33388L89.2144 9.41499L89.0106 9.37443L88.9863 9.4089L89.1587 9.53057L89.2322 9.5179L89.2636 9.4368L89.4334 9.54377L89.2864 9.56911L89.3285 9.63755L89.3143 9.73082L89.3929 9.74755L89.4942 9.8966L89.5992 9.80282L89.6169 9.90573L89.8156 9.91689L89.8699 9.96809L89.9333 9.89662L89.9297 10.1394L90.137 9.93718L90.2841 9.91184L90.2395 9.8287L90.3434 9.55343L90.4407 9.41555L90.4281 9.34204L90.5513 9.0029L90.4894 8.9076L90.6131 8.6592L90.6146 8.49242L90.6608 8.40877L90.638 8.27646L90.7404 8.16798L90.7024 7.94746L90.8185 7.65496L90.9036 7.53431L90.8834 7.4167L90.9685 7.29605L90.9822 7.11203L91.3214 6.79622L91.4978 6.76581L91.5323 6.79015L91.7234 6.7572L91.7721 6.68826L91.9373 6.85657L92.0793 6.80183L92.1289 6.91437L92.2592 6.96761L92.1984 7.05378L92.2673 7.10245L92.3398 7.34731L92.3109 7.44312L92.355 7.43552L92.388 7.62663L92.2987 7.89936L92.3479 7.92116L92.3271 8.15182L92.2779 8.13002L92.2723 8.44889L92.1841 8.46409L92.2074 8.68715L92.0827 9.19307L91.9539 9.41206L91.9382 9.67212L91.8627 9.76083L91.8956 9.95195L91.815 10.0113L91.848 10.2024L91.7207 10.2546L91.7947 10.3327L91.779 10.5927L91.6695 10.7478L91.5681 11.0378L91.711 11.1645L91.5716 11.234L91.5767 11.2634L91.6502 11.2507L91.6705 11.3683L91.6071 11.4398L91.6908 11.4859L91.7592 11.4439L91.7795 11.5615L91.8357 11.5366L91.7262 11.6918L91.8302 11.8555L91.8291 12.113L91.9422 12.1541L92.0091 12.2788L91.9482 12.365L92.0466 12.4086L92.0821 12.6144L92.2144 12.5916L92.223 12.8172L92.3315 12.9196L92.3254 13.1477L92.5565 13.2593L92.6579 13.4083L92.6189 13.4453L92.6366 13.5482L92.7542 13.5279L92.8404 13.5888L92.8039 13.6405L92.9763 13.7622L92.9965 13.8798L93.1192 13.8889L93.1471 14.0506L93.2672 14.045L93.3783 14.1621L93.4913 14.2032L93.509 14.3061L93.7057 14.3933L93.7311 14.5403L93.8882 14.5738L93.98 14.7548L94.0139 14.6884L94.2385 14.9373L94.2785 15.0818L94.4458 15.174L94.4737 15.3358L94.5452 15.3991L94.568 15.5314L94.7606 15.7707L94.7317 15.8665L94.6927 15.9035L94.7378 16.0774L94.5827 16.4069L94.5386 16.4145L94.4397 16.7192L94.3849 16.5773L94.2116 16.7131L94.0275 16.6994L94.1061 16.7161L94.0549 16.7704L93.8167 16.7055L93.696 16.6203L93.4654 16.5995L93.2438 16.456L93.1014 16.42L93.0836 16.3171L93.0248 16.3273L92.8991 16.2127L92.8479 16.2669L92.8058 16.1985L92.6979 16.1868L92.6801 16.0839L92.5843 16.055L92.5615 15.9227L92.4829 15.906L92.4145 15.9481L92.3648 15.8355L92.2173 15.7701L92.2442 15.7503L92.1139 15.6971L92.0987 15.6089L92.0252 15.6216L92.0074 15.5187L91.9294 15.5927L91.8696 15.4213L91.7763 15.4071L91.7225 15.4467L91.5355 15.3275L91.4402 15.3894L91.2607 15.3143L91.2455 15.2261L91.1228 15.217L91.0367 15.1562L90.7964 15.1673L90.6767 15.2636L90.5444 15.2864L90.2494 15.5946L90.1439 15.5977L90.0912 15.8187L89.9345 15.876L89.9472 15.9495L90.0917 15.9094L89.9067 16.1533L89.9269 16.2709L89.8103 16.4726L89.6927 16.4929L89.6298 16.6551L89.6501 16.7727L89.5548 16.8346L89.6263 16.898L89.46 16.9872L89.3733 17.2746L89.1563 17.5088L88.9946 17.5367L89.0098 17.6249L88.6626 17.8058L88.5591 17.7328L88.5819 17.8652L88.4395 17.8292ZM91.2993 15.1866L91.3464 15.2844L91.4199 15.2718L91.4022 15.1689L91.2993 15.1866ZM88.9513 9.29383L88.998 9.30092L88.9878 9.24212L88.9437 9.24972L88.9513 9.29383ZM91.3584 6.83526L91.3954 6.87429L91.4542 6.86416L91.4441 6.80535L91.3584 6.83526ZM91.1416 15.0624L91.1786 15.1014L91.2227 15.0938L91.1416 15.0624ZM91.0704 7.09683L91.078 7.14093L91.1145 7.08923L91.0704 7.09683Z" fill="white"/>
<path d="M88.4395 17.8292L88.3954 17.8368L88.2058 17.7029L88.0684 17.6963L87.927 17.4028L87.9975 17.2847L87.9209 17.1919L87.9661 16.9268L87.9387 16.8558L88.0335 16.7032L88.0325 16.5217L88.0786 16.4381L88.1597 16.4695L88.1886 16.3737L88.1658 16.2414L88.2804 16.1157L88.3651 15.9043L88.4553 15.8131L88.506 15.6681L88.4852 15.4597L88.6322 15.4344L88.5608 15.371L88.7382 15.0831L88.8006 14.8301L88.7387 14.7348L88.8614 14.7439L88.8731 14.636L88.8285 14.5528L88.8077 14.3445L88.8857 14.2705L88.8259 14.0991L88.9385 14.0494L88.8619 13.9567L88.8214 13.7214L88.7869 13.6971L88.7935 13.5597L88.6612 13.5825L88.5923 13.5339L88.684 13.2758L88.6156 13.3179L88.5487 13.1932L88.5847 13.0507L88.4422 13.0147L88.4118 12.8383L88.3479 12.8191L88.3226 12.6721L88.1796 12.5453L88.2136 12.4789L88.1077 12.3912L88.1558 12.2315L88.0823 12.2442L88.0671 12.156L87.9956 12.0926L87.8436 12.0885L87.8334 12.0297L87.9703 11.9456L87.584 11.7246L87.5587 11.5775L87.4061 11.4827L87.3858 11.3651L87.2403 11.2237L87.2991 11.2135L87.3209 11.1644L87.2226 11.1208L87.1445 11.1948L86.8607 10.8653L86.8454 10.7771L86.7172 10.6478L86.5849 10.6706L86.5595 10.5236L86.6082 10.4546L86.2954 10.2209L86.3588 10.1494L86.2382 10.0643L86.2078 9.88785L85.9746 9.85236L85.9492 9.70534L86.0425 9.71954L85.9137 9.49952L85.9381 9.46505L85.9102 9.30334L85.819 9.2131L85.7657 8.90437L85.6593 8.72592L85.601 8.38779L85.6162 8.03699L85.8368 7.55997L86.0882 7.3501L86.1252 7.38914L86.1982 7.28573L86.4628 7.24011L86.5237 7.15393L86.6099 7.21477L86.6854 7.12606L86.9774 7.15142L87.3236 7.22798L87.6019 7.43736L87.6318 7.52303L87.7495 7.50276L87.8726 7.60263L87.8483 7.6371L88.0186 7.83481L88.0921 7.82214L88.2366 8.22111L88.4667 8.59017L88.5549 8.57497L88.5701 8.66318L88.6878 8.6429L88.7739 8.70374L88.6614 8.75342L88.7217 9.01551L88.8667 9.06621L88.8895 9.19852L88.9432 9.15898L89.0613 9.22945L89.179 9.20918L89.2459 9.33388L89.2144 9.41499L89.0106 9.37443L88.9863 9.4089L89.1587 9.53057L89.2322 9.5179L89.2636 9.4368L89.4334 9.54377L89.2864 9.56911L89.3285 9.63755L89.3143 9.73082L89.3929 9.74755L89.4942 9.8966L89.5992 9.80282L89.6169 9.90573L89.8156 9.91689L89.8699 9.96809L89.9333 9.89662L89.9297 10.1394L90.137 9.93718L90.2841 9.91184L90.2395 9.8287L90.3434 9.55343L90.4407 9.41555L90.4281 9.34204L90.5513 9.0029L90.4894 8.9076L90.6131 8.6592L90.6146 8.49242L90.6608 8.40877L90.638 8.27646L90.7404 8.16798L90.7024 7.94746L90.8185 7.65496L90.9036 7.53431L90.8834 7.4167L90.9685 7.29605L90.9822 7.11203L91.3214 6.79622L91.4978 6.76581L91.5323 6.79015L91.7234 6.7572L91.7721 6.68826L91.9373 6.85657L92.0793 6.80183L92.1289 6.91437L92.2592 6.96761L92.1984 7.05378L92.2673 7.10245L92.3398 7.34731L92.3109 7.44312L92.355 7.43552L92.388 7.62663L92.2987 7.89936L92.3479 7.92116L92.3271 8.15182L92.2779 8.13002L92.2723 8.44889L92.1841 8.46409L92.2074 8.68715L92.0827 9.19307L91.9539 9.41206L91.9382 9.67212L91.8627 9.76083L91.8956 9.95195L91.815 10.0113L91.848 10.2024L91.7207 10.2546L91.7947 10.3327L91.779 10.5927L91.6695 10.7478L91.5681 11.0378L91.711 11.1645L91.5716 11.234L91.5767 11.2634L91.6502 11.2507L91.6705 11.3683L91.6071 11.4398L91.6908 11.4859L91.7592 11.4439L91.7795 11.5615L91.8357 11.5366L91.7262 11.6918L91.8302 11.8555L91.8291 12.113L91.9422 12.1541L92.0091 12.2788L91.9482 12.365L92.0466 12.4086L92.0821 12.6144L92.2144 12.5916L92.223 12.8172L92.3315 12.9196L92.3254 13.1477L92.5565 13.2593L92.6579 13.4083L92.6189 13.4453L92.6366 13.5482L92.7542 13.5279L92.8404 13.5888L92.8039 13.6405L92.9763 13.7622L92.9965 13.8798L93.1192 13.8889L93.1471 14.0506L93.2672 14.045L93.3783 14.1621L93.4913 14.2032L93.509 14.3061L93.7057 14.3933L93.7311 14.5403L93.8882 14.5738L93.98 14.7548L94.0139 14.6884L94.2385 14.9373L94.2785 15.0818L94.4458 15.174L94.4737 15.3358L94.5452 15.3991L94.568 15.5314L94.7606 15.7707L94.7317 15.8665L94.6927 15.9035L94.7378 16.0774L94.5827 16.4069L94.5386 16.4145L94.4397 16.7192L94.3849 16.5773L94.2116 16.7131L94.0275 16.6994L94.1061 16.7161L94.0549 16.7704L93.8167 16.7055L93.696 16.6203L93.4654 16.5995L93.2438 16.456L93.1014 16.42L93.0836 16.3171L93.0248 16.3273L92.8991 16.2127L92.8479 16.2669L92.8058 16.1985L92.6979 16.1868L92.6801 16.0839L92.5843 16.055L92.5615 15.9227L92.4829 15.906L92.4145 15.9481L92.3648 15.8355L92.2173 15.7701L92.2442 15.7503L92.1139 15.6971L92.0987 15.6089L92.0252 15.6216L92.0074 15.5187L91.9294 15.5927L91.8696 15.4213L91.7763 15.4071L91.7225 15.4467L91.5355 15.3275L91.4402 15.3894L91.2607 15.3143L91.2455 15.2261L91.1228 15.217L91.0367 15.1562L90.7964 15.1673L90.6767 15.2636L90.5444 15.2864L90.2494 15.5946L90.1439 15.5977L90.0912 15.8187L89.9345 15.876L89.9472 15.9495L90.0917 15.9094L89.9067 16.1533L89.9269 16.2709L89.8103 16.4726L89.6927 16.4929L89.6298 16.6551L89.6501 16.7727L89.5548 16.8346L89.6263 16.898L89.46 16.9872L89.3733 17.2746L89.1563 17.5088L88.9946 17.5367L89.0098 17.6249L88.6626 17.8058L88.5591 17.7328L88.5819 17.8652L88.4395 17.8292ZM91.2993 15.1866L91.3464 15.2844L91.4199 15.2718L91.4022 15.1689L91.2993 15.1866ZM88.9513 9.29383L88.998 9.30092L88.9878 9.24212L88.9437 9.24972L88.9513 9.29383ZM91.3584 6.83526L91.3954 6.87429L91.4542 6.86416L91.4441 6.80535L91.3584 6.83526ZM91.1416 15.0624L91.1786 15.1014L91.2227 15.0938L91.1416 15.0624ZM91.0704 7.09683L91.078 7.14093L91.1145 7.08923L91.0704 7.09683Z" stroke="white" stroke-width="0.348139" mask="url(#path-2-outside-2_818_510)"/>
<path d="M124.529 20.1553C123.97 19.2639 123.247 18.198 122.34 17.0382C122.923 16.6663 123.705 16.1027 124.514 15.2957C125.428 14.3832 127.374 12.4413 127.878 9.32427C128.011 8.51147 128.498 5.49604 126.623 2.99437C126.372 2.6589 125.632 1.61606 124.28 1.00454C122.342 0.12464 120.103 0.015372 118.006 0.00387011C117.914 0.00387011 117.824 0.00387011 117.732 0.00387011H116.829C116.597 0.00387011 116.365 0.00195312 116.135 0.00195312C113.474 0.00195312 110.813 0.00195312 108.153 0.00387011C108.153 0.00387011 94.3656 0.00387011 94.3656 0.0115381V1.30167C94.3656 1.30167 94.3733 1.30167 94.3771 1.30167C94.4365 1.30167 94.5266 1.30167 94.634 1.31126C94.8602 1.32851 95.3279 1.37068 95.7746 1.64098C96.0525 1.80776 96.2212 1.99754 96.3209 2.12214C96.7312 2.6359 96.9842 3.39886 97.1126 4.43978C97.1376 4.78292 97.1452 5.12798 97.151 5.4692C97.1817 7.34977 97.2027 9.22842 97.22 11.109V23.0806C97.2047 24.9592 97.1817 26.836 97.151 28.7146C97.1452 29.0501 97.1376 29.3913 97.1126 29.7287C96.9746 30.8521 96.6928 31.6534 96.2232 32.1652C96.2002 32.1882 96.1791 32.2131 96.1541 32.2361C96.1503 32.24 96.1465 32.2438 96.1426 32.2476C96.0717 32.3166 95.995 32.3799 95.9164 32.4393C95.5618 32.6962 95.1247 32.8361 94.5937 32.8668C94.5209 32.8687 94.448 32.8706 94.3752 32.8745C94.3713 32.8745 94.3675 32.8745 94.3637 32.8745C94.3637 32.8745 94.3637 34.1723 94.3637 34.1761C99.7983 34.1761 105.233 34.1761 110.668 34.1761C110.668 33.739 110.668 33.3 110.668 32.863C110.618 32.8687 110.566 32.8687 110.514 32.8726C109.433 32.8323 108.733 32.3588 108.317 31.3792C108.172 30.9958 108.093 30.5779 108.034 30.1696C107.917 29.3721 107.85 28.5689 107.811 27.7638C107.811 27.7369 107.811 27.712 107.811 27.6833V23.5809C107.817 23.3739 107.823 23.1668 107.831 22.9598C108.241 22.818 108.868 22.6032 109.631 22.3368C110.576 22.0071 111.442 21.7061 112.24 21.4262C114.5 24.687 117.003 28.9638 117.003 31.1626C117.003 32.5639 116.07 32.8764 114.874 32.8764V34.1742H132.32V32.8764C132.1 32.8764 131.776 32.8534 131.409 32.7326C131.135 32.6425 130.702 32.4508 130.183 31.9371C129.682 31.4425 129.308 30.8501 128.843 29.7306C128.363 28.5785 128.331 28.1759 127.919 26.997C127.572 26.004 127.255 25.3215 126.836 24.4148C125.931 22.4614 125.041 20.9776 124.527 20.1591L124.529 20.1553ZM107.813 18.5412V8.31977C107.813 4.24425 109.333 3.41611 113.062 3.41611C116.516 3.41611 118.863 5.21233 118.863 8.73384C118.863 14.6056 112.508 17.368 107.811 18.5412H107.813Z" fill="white"/>
<path d="M34.1663 28.8718C31.7298 21.8518 28.9866 15.6695 24.081 10.1563L25.3923 8.62651C28.2486 5.40022 31.4154 2.07233 35.1536 1.29978V6.10352e-05H20.0956V1.29978C21.6541 1.29978 22.5359 2.66468 22.5359 4.34779C22.5359 6.03091 19.9403 9.2572 19.0585 10.4515L13.5089 17.1744V22.9963L15.3185 20.761L17.4693 18.1405C18.5409 19.6013 19.5109 21.1234 20.3046 22.7432C21.2381 24.6123 23.0555 29.1805 23.0555 31.155C23.0555 32.5563 21.8094 32.8668 20.6669 32.9186V34.1665H38.3741V32.9186C35.7766 32.9186 34.9465 30.9978 34.1682 28.8699L34.1663 28.8718Z" fill="white"/>
<path d="M13.4994 27.6775V6.4929C13.4994 2.85829 14.226 1.29978 16.3557 1.29978V6.10352e-05H0V1.29786C2.12786 1.29786 2.85631 2.85637 2.85631 6.49098V27.6756C2.85631 31.3102 2.12977 32.8687 0 32.8687V34.1665H16.3557V32.8687C14.226 32.8687 13.4994 31.3102 13.4994 27.6756V27.6775Z" fill="white"/>
<path d="M55.5638 1.29978C53.434 1.29978 52.7075 2.85829 52.7075 6.4929V27.6795C52.7075 31.3141 53.434 32.8726 55.5638 32.8726V34.1704H39.2061V32.8726C41.334 32.8726 42.0624 31.3141 42.0624 27.6795V6.4929C42.0624 2.85829 41.3359 1.29978 39.2061 1.29978V6.10352e-05H55.5638V1.29786V1.29978Z" fill="white"/>
<path d="M74.3557 1.29978C72.226 1.29978 71.4994 2.85829 71.4994 6.4929V24.4218C71.4994 26.0838 71.7065 29.7428 75.2893 29.7428C81.3643 29.7428 91.3699 26.7618 93.4479 21.5169L94.5059 21.8866L90.8917 35.0024C90.6329 34.4829 90.0099 34.2758 89.3351 34.2241C88.7121 34.1723 87.027 34.1723 86.5075 34.1723H58V32.8745C60.1298 32.8745 60.8563 31.316 60.8563 27.6814V6.4929C60.8563 2.85829 60.1298 1.29978 58 1.29978V6.10352e-05H74.3059L74.3577 1.29786L74.3557 1.29978Z" fill="white"/>
<path d="M6.79378 54.7463C3.84928 54.7309 2.85245 53.412 2.65308 51.8171L4.7541 51.3724C4.9688 52.4765 5.75093 52.9826 6.88579 52.9826C7.9133 52.9826 8.41938 52.6452 8.41938 52.0625C8.41938 51.4184 8.00531 51.081 6.25702 50.7896C3.71126 50.3909 2.92913 49.394 2.92913 47.8758C2.92913 46.1428 4.14066 45.1153 6.65575 45.1153C9.15551 45.1153 10.1677 46.2348 10.4284 47.8144L8.23535 48.2438C8.02065 47.3083 7.65259 46.8329 6.5484 46.8329C5.5669 46.8329 5.10683 47.1703 5.10683 47.7531C5.10683 48.2898 5.36754 48.6732 7.17717 48.9953C10.0297 49.5014 10.6431 50.5749 10.6431 51.9091C10.6431 53.6727 9.4929 54.7463 6.79378 54.7463ZM22.5981 47.3543V45.33H30.1127V47.3543H27.4596V54.5316H25.2513V47.3543H22.5981ZM46.5353 52.7833C47.9616 52.7833 48.3603 52.0318 48.3603 50.8049V45.33H50.584V50.9736C50.584 53.3967 49.1578 54.7309 46.5353 54.7309C43.9129 54.7309 42.456 53.3967 42.456 50.9736V45.33H44.6644V50.7743C44.6644 52.0011 45.0784 52.7833 46.5353 52.7833ZM67.2977 47.155H65.8561V52.7219H67.3743C69.2913 52.7219 70.0274 51.7558 70.0274 49.8234C70.0274 47.8758 69.2453 47.155 67.2977 47.155ZM63.6477 54.5316V45.33H67.5737C70.8096 45.33 72.2358 46.9403 72.2358 49.8234C72.2358 52.7373 70.4875 54.5316 67.543 54.5316H63.6477ZM87.1077 54.5316H84.8993V45.33H87.1077V54.5316ZM104.423 54.7463C101.448 54.7463 99.7762 52.8753 99.7762 49.9001C99.7762 46.9403 101.555 45.1153 104.423 45.1153C107.337 45.1153 109.07 46.9403 109.07 49.9001C109.07 52.8753 107.414 54.7463 104.423 54.7463ZM104.423 52.8446C106.156 52.8446 106.877 51.7097 106.877 49.9001C106.877 48.1825 106.156 47.0476 104.423 47.0476C102.705 47.0476 101.985 48.1825 101.985 49.9001C101.985 51.7097 102.705 52.8446 104.423 52.8446ZM125.348 54.7463C122.403 54.7309 121.406 53.412 121.207 51.8171L123.308 51.3724C123.523 52.4765 124.305 52.9826 125.44 52.9826C126.467 52.9826 126.973 52.6452 126.973 52.0625C126.973 51.4184 126.559 51.081 124.811 50.7896C122.265 50.3909 121.483 49.394 121.483 47.8758C121.483 46.1428 122.694 45.1153 125.21 45.1153C127.709 45.1153 128.721 46.2348 128.982 47.8144L126.789 48.2438C126.574 47.3083 126.206 46.8329 125.102 46.8329C124.121 46.8329 123.661 47.1703 123.661 47.7531C123.661 48.2898 123.921 48.6732 125.731 48.9953C128.583 49.5014 129.197 50.5749 129.197 51.9091C129.197 53.6727 128.047 54.7463 125.348 54.7463Z" fill="white"/>
</svg>
