<svg preserveAspectRatio="none" width="100%" height="100%" overflow="visible" style="display: block;" viewBox="0 0 2957.49 105.095" fill="none" xmlns="http://www.w3.org/2000/svg">
<path id="Vector 9" d="M79.4952 0H0V105.095H2957.49V0L2898.21 10.779H2798.5H2720.35L2624.69 30.9896L2554.62 45.8107L2485.91 52.5476L2433.36 30.9896L2341.74 18.8632L2273.02 10.779H2186.79L2088.43 0H2031.84L1956.39 10.779L1862.07 52.5476H1771.8L1664.01 30.9896L1597.99 18.8632L1531.97 10.779L1464.6 0L1366.24 10.779H1298.87L1269.23 18.8632L1160.09 30.9896L1045.56 39.0738H983.584L851.541 10.779H761.267H684.467L592.845 0L529.519 10.779L444.634 30.9896L336.844 56.5897L256.001 39.0738L148.211 10.779L79.4952 0Z" fill="var(--fill-0, #1C1C1C)"/>
</svg>
