<svg preserveAspectRatio="xMidYMid meet" width="100%" height="100%" overflow="visible" style="display: block;" viewBox="0 0 38.1847 40.4432" fill="none" xmlns="http://www.w3.org/2000/svg">
<path id="&#226;&#156;&#147;" d="M8.29874 40.4432C8.29874 39.988 8.2112 39.7604 8.03612 39.7604L6.82807 40.3382C6.82807 40.093 6.68801 39.918 6.40788 39.8129L5.98769 39.7604C5.70757 39.7604 5.35741 39.8829 4.93722 40.1281C4.86719 39.953 4.77965 39.7779 4.6746 39.6028C4.56956 39.4277 4.48202 39.2702 4.41199 39.1301C3.95678 38.2547 3.50158 37.2918 3.04637 36.2413C2.62618 35.1558 2.2235 34.1229 1.83833 33.1424C1.48817 32.162 1.20804 31.3916 0.997949 30.8314C0.857886 30.3762 0.700315 29.6934 0.525236 28.783C0.350157 27.8725 0.175079 26.717 0 25.3164C0.385173 25.5615 0.682807 25.6841 0.892902 25.6841C1.13801 25.6841 1.36561 25.3164 1.57571 24.5811C1.68076 24.7211 1.87334 24.7912 2.15347 24.7912C2.36356 24.7912 2.52113 24.7211 2.62618 24.5811L3.46656 23.3205L4.41199 23.6356H4.46451C4.53454 23.6356 4.60457 23.6006 4.6746 23.5306C4.74464 23.4606 4.84968 23.3905 4.98975 23.3205C5.26987 23.1454 5.47997 23.0579 5.62003 23.0579L5.7776 23.1104C6.65299 23.5306 7.21325 24.3009 7.45836 25.4214C8.08864 28.0826 8.71892 29.4132 9.34921 29.4132C9.97949 29.4132 10.7148 28.7479 11.5552 27.4173C11.9754 26.752 12.3956 25.9817 12.8158 25.1063C13.271 24.2309 13.7262 23.2505 14.1814 22.165C14.2514 22.5852 14.3214 22.7953 14.3915 22.7953C14.5666 22.7953 14.8642 22.3576 15.2844 21.4822C15.7396 20.6068 16.4574 19.3987 17.4378 17.858C17.9981 16.9126 18.6984 15.8446 19.5388 14.6541C20.4142 13.4636 21.3421 12.238 22.3225 10.9774C23.303 9.71687 24.2484 8.52633 25.1588 7.40583C26.1042 6.28533 26.9446 5.32239 27.68 4.51703C28.4153 3.71167 28.958 3.18643 29.3082 2.94132C30.6388 2.03091 31.6893 1.15552 32.4596 0.315141C32.4246 0.56025 32.3721 0.787852 32.302 0.997948C32.267 1.17303 32.2495 1.29558 32.2495 1.36561C32.2495 1.50568 32.3195 1.57571 32.4596 1.57571L33.9303 0.840376V1.05047C33.9303 1.3306 34.0003 1.47066 34.1404 1.47066C34.2454 1.47066 34.4555 1.31309 34.7706 0.997948C35.0858 0.682806 35.2609 0.455204 35.2959 0.315141L35.1908 1.05047L36.9766 0L36.5564 0.945426C37.1167 0.560251 37.5194 0.367664 37.7645 0.367664C37.9046 0.367664 38.0096 0.455203 38.0796 0.630282C38.1497 0.770345 38.1847 0.910408 38.1847 1.05047C38.1847 1.26057 38.0971 1.50568 37.9221 1.7858C37.747 2.06593 37.5194 2.39858 37.2393 2.78375C37.0292 3.06388 36.679 3.48407 36.1888 4.04432C35.7336 4.56956 35.0333 5.35741 34.0878 6.40788C33.1424 7.42334 31.8818 8.84148 30.3061 10.6623C29.886 11.1175 29.2382 11.9229 28.3628 13.0784C27.4874 14.1989 26.4894 15.512 25.3689 17.0177C24.2834 18.4883 23.1979 19.9765 22.1125 21.4822C21.027 22.9878 20.064 24.3535 19.2237 25.579C18.3833 26.7695 17.788 27.6624 17.4378 28.2577L14.1814 33.7727C13.4811 34.9632 12.9033 35.9437 12.4481 36.714C11.9929 37.4494 11.6427 37.9571 11.3976 38.2372C10.8724 38.8675 10.2946 39.4277 9.66435 39.918L9.19164 39.6553L8.77145 39.918L8.29874 40.4432Z" fill="var(--fill-0, white)"/>
</svg>
